<?xml version="1.0" encoding="utf-8"?>
<!-- Generator: Adobe Illustrator 24.3.0, SVG Export Plug-In . SVG Version: 6.00 Build 0)  -->
<svg version="1.1" id="Layer_1" xmlns="http://www.w3.org/2000/svg" xmlns:xlink="http://www.w3.org/1999/xlink" x="0px" y="0px"
	 viewBox="0 0 800 800" enable-background="new 0 0 800 800" xml:space="preserve">
<g>
	<path fill="#787EBB" d="M400,71.199c71.208,0,129.139,57.933,129.139,129.141c0,71.208-57.931,129.139-129.139,129.139
		S270.861,271.548,270.861,200.34C270.861,129.132,328.792,71.199,400,71.199z"/>
	<path fill="#BFC6E4" d="M299.651,308.707c26.376,24.442,61.64,39.422,100.349,39.422s73.973-14.98,100.349-39.422h124.217
		c7.262,0,13.173,5.908,13.173,13.17v245.447c0,7.262-5.91,13.168-13.173,13.168H175.434c-7.262,0-13.168-5.906-13.168-13.168
		V321.878c0-7.262,5.906-13.17,13.168-13.17H299.651z"/>
	<path fill="#83C9EF" d="M299.651,308.707c26.376,24.442,61.64,39.422,100.349,39.422s73.973-14.98,100.349-39.422h124.217
		c7.262,0,13.173,5.908,13.173,13.17v245.447c0,7.262-5.91,13.168-13.173,13.168H175.434c-7.262,0-13.168-5.906-13.168-13.168
		V321.878c0-7.262,5.906-13.17,13.168-13.17H299.651z"/>
	<path fill="#BFC6E4" d="M111.893,278.69c0-9.487,7.718-17.207,17.207-17.207h136.406c4.654,10.195,10.419,19.774,17.164,28.574
		H175.434c-17.544,0-31.818,14.274-31.818,31.82v245.447c0,17.544,14.275,31.818,31.818,31.818h449.132
		c17.548,0,31.823-14.275,31.823-31.818V321.878c0-17.546-14.274-31.82-31.823-31.82H517.33c6.745-8.8,12.511-18.379,17.164-28.574
		H670.9c9.489,0,17.207,7.72,17.207,17.207v347.782H522.528H278.351H111.893V278.69z"/>
	<path fill="#83C9EF" d="M284.02,645.122H515.98v0.351c0,10.322-8.396,18.718-18.718,18.718H302.738
		c-10.322,0-18.718-8.396-18.718-18.718V645.122z"/>
	<path fill="#787EBB" d="M69.38,645.714c0-0.305,0.291-0.592,0.597-0.592h23.267H265.37v0.351c0,20.604,16.765,37.369,37.368,37.369
		h194.524c20.603,0,37.368-16.765,37.368-37.369v-0.351h172.126h23.864v16.929c0,36.808-29.942,66.751-66.751,66.751H136.13
		c-36.808,0-66.751-29.942-66.751-66.751V645.714z"/>
	<g>
		<path fill="#1D1751" d="M136.13,747.451H663.87c47.09,0,85.401-38.311,85.401-85.401v-18.723c0-9.293-7.563-16.856-16.856-16.856
			h-25.658V278.69c0-19.772-16.087-35.857-35.857-35.857H541.534c4.051-13.466,6.255-27.725,6.255-42.493
			c0-81.492-66.3-147.792-147.789-147.792s-147.789,66.3-147.789,147.792c0,14.768,2.204,29.027,6.255,42.493H129.1
			c-19.77,0-35.857,16.084-35.857,35.857v347.782H69.976c-10.614,0-19.247,8.633-19.247,19.242v16.337
			C50.73,709.14,89.041,747.451,136.13,747.451z M400,71.199c71.208,0,129.139,57.933,129.139,129.141
			c0,71.208-57.931,129.139-129.139,129.139S270.861,271.548,270.861,200.34C270.861,129.132,328.792,71.199,400,71.199z
			 M299.651,308.707c26.376,24.442,61.64,39.422,100.349,39.422s73.973-14.98,100.349-39.422h124.217
			c7.262,0,13.173,5.908,13.173,13.17v245.447c0,7.262-5.91,13.168-13.173,13.168H175.434c-7.262,0-13.168-5.906-13.168-13.168
			V321.878c0-7.262,5.906-13.17,13.168-13.17H299.651z M111.893,278.69c0-9.487,7.718-17.207,17.207-17.207h136.406
			c4.654,10.195,10.419,19.774,17.164,28.574H175.434c-17.544,0-31.818,14.274-31.818,31.82v245.447
			c0,17.544,14.275,31.818,31.818,31.818h449.132c17.548,0,31.823-14.275,31.823-31.818V321.878c0-17.546-14.274-31.82-31.823-31.82
			H517.33c6.745-8.8,12.511-18.379,17.164-28.574H670.9c9.489,0,17.207,7.72,17.207,17.207v347.782H522.528H278.351H111.893V278.69z
			 M284.02,645.122H515.98v0.351c0,10.322-8.396,18.718-18.718,18.718H302.738c-10.322,0-18.718-8.396-18.718-18.718V645.122z
			 M69.38,645.714c0-0.305,0.291-0.592,0.597-0.592h23.267H265.37v0.351c0,20.604,16.765,37.369,37.368,37.369h194.524
			c20.603,0,37.368-16.765,37.368-37.369v-0.351h172.126h23.864v16.929c0,36.808-29.942,66.751-66.751,66.751H136.13
			c-36.808,0-66.751-29.942-66.751-66.751V645.714z"/>
	</g>
	<g>
		<path fill="#1D1751" d="M382.802,304.127c4.59,4.594,10.7,7.126,17.198,7.126c6.497,0,12.608-2.532,17.198-7.126l71.75-71.748
			c9.48-9.484,9.48-24.913,0-34.398l-2.727-2.732h-45.487v-88.005c0-9.824-7.991-17.817-17.812-17.817h-45.838
			c-9.826,0-17.817,7.993-17.817,17.817v88.005H313.78l-2.727,2.732c-9.48,9.484-9.48,24.913,0,34.398L382.802,304.127z
			 M322.727,213.9h55.19V108.078h44.167V213.9h55.19c0.423,1.844-0.082,3.859-1.512,5.293l-71.75,71.748
			c-2.149,2.145-5.874,2.145-8.023,0l-71.75-71.748C322.809,217.761,322.303,215.744,322.727,213.9z"/>
	</g>
	<g>
		<path fill="#1D1751" d="M284.287,364.458c7.243,3.128,14.487,6.256,21.731,9.384c1.058,0.457,3.919,2.185,5.928,3.067
			c1.956,13.621,5.634,27.279,8.38,40.728c3.433,16.809,6.865,33.618,10.297,50.428l1.843,9.136
			c0.092,1.139,0.351,2.229,0.693,3.286c1.816,8.892,3.632,17.785,5.447,26.678c0.811,3.972,5.101,6.846,8.992,6.846
			c47.543,0,95.087,0,142.63,0c12,0,12.02-18.65,0-18.65c-45.012,0-90.024,0-135.037,0c-0.288-1.413-0.577-2.826-0.865-4.238
			l132.772-7.436l0.209-0.016c13.072-1.031,14.926-11.16,16.15-18.773l17.28-68.137v-1.163c0-8.729-7.103-15.829-15.832-15.829
			H333.029c-0.889-4.567-2.083-8.851-3.935-12.228c-6.079-11.081-24.302-14.396-35.394-19.185
			C282.796,343.646,273.287,359.708,284.287,364.458z M501.077,398.418l-15.8,62.298l-0.168,0.817
			c-0.264,1.641-0.487,2.803-0.669,3.622l-133.865,7.499l-14.065-68.887c-0.32-1.653-0.597-3.46-0.854-5.349H501.077z"/>
	</g>
	<g>
		<path fill="#1D1751" d="M381.669,516.044c-13.61,0-24.683,11.071-24.683,24.681c0,13.61,11.074,24.683,24.683,24.683
			c13.61,0,24.683-11.073,24.683-24.683C406.352,527.115,395.278,516.044,381.669,516.044z M381.669,546.758
			c-3.329,0-6.033-2.707-6.033-6.033c0-3.326,2.705-6.031,6.033-6.031c3.328,0,6.033,2.705,6.033,6.031
			C387.702,544.051,384.997,546.758,381.669,546.758z"/>
	</g>
	<g>
		<path fill="#1D1751" d="M452.367,516.044c-13.61,0-24.683,11.071-24.683,24.681c0,13.61,11.074,24.683,24.683,24.683
			c13.61,0,24.679-11.073,24.679-24.683C477.045,527.115,465.977,516.044,452.367,516.044z M452.367,546.758
			c-3.328,0-6.033-2.707-6.033-6.033c0-3.326,2.705-6.031,6.033-6.031c3.324,0,6.029,2.705,6.029,6.031
			C458.395,544.051,455.691,546.758,452.367,546.758z"/>
	</g>
	<path fill="#83C9EF" d="M322.727,213.9h55.19V108.078h44.167V213.9h55.19c0.423,1.844-0.082,3.859-1.512,5.293l-71.75,71.748
		c-2.149,2.145-5.874,2.145-8.023,0l-71.75-71.748C322.809,217.761,322.303,215.744,322.727,213.9z"/>
	<path fill="#BFC6E4" d="M501.077,398.418l-15.8,62.298l-0.168,0.817c-0.264,1.641-0.487,2.803-0.669,3.622l-133.865,7.499
		l-14.065-68.887c-0.32-1.653-0.597-3.46-0.854-5.349H501.077z"/>
	<path fill="#787EBB" d="M381.669,546.758c-3.329,0-6.033-2.707-6.033-6.033c0-3.326,2.705-6.031,6.033-6.031
		c3.328,0,6.033,2.705,6.033,6.031C387.702,544.051,384.997,546.758,381.669,546.758z"/>
	<path fill="#787EBB" d="M452.367,546.758c-3.328,0-6.033-2.707-6.033-6.033c0-3.326,2.705-6.031,6.033-6.031
		c3.324,0,6.029,2.705,6.029,6.031C458.395,544.051,455.691,546.758,452.367,546.758z"/>
</g>
</svg>
